<svg width="23" height="21" viewBox="0 0 23 21" fill="none" xmlns="http://www.w3.org/2000/svg">
<path d="M6.92266 9.44958C6.69553 9.44958 6.4735 9.51116 6.28465 9.62653C6.0958 9.7419 5.94861 9.90588 5.86169 10.0977C5.77477 10.2896 5.75203 10.5007 5.79634 10.7044C5.84065 10.908 5.95003 11.0951 6.11063 11.242C6.27123 11.3888 6.47586 11.4888 6.69862 11.5293C6.92138 11.5698 7.15229 11.549 7.36213 11.4696C7.57196 11.3901 7.75132 11.2555 7.8775 11.0829C8.00369 10.9102 8.07104 10.7072 8.07104 10.4995C8.07104 10.2211 7.95005 9.95401 7.73469 9.75711C7.51932 9.5602 7.22723 9.44958 6.92266 9.44958ZM11.5162 9.44958C11.2891 9.44958 11.067 9.51116 10.8782 9.62653C10.6893 9.7419 10.5421 9.90588 10.4552 10.0977C10.3683 10.2896 10.3456 10.5007 10.3899 10.7044C10.4342 10.908 10.5436 11.0951 10.7042 11.242C10.8648 11.3888 11.0694 11.4888 11.2921 11.5293C11.5149 11.5698 11.7458 11.549 11.9557 11.4696C12.1655 11.3901 12.3448 11.2555 12.471 11.0829C12.5972 10.9102 12.6646 10.7072 12.6646 10.4995C12.6646 10.2211 12.5436 9.95401 12.3282 9.75711C12.1129 9.5602 11.8208 9.44958 11.5162 9.44958ZM16.1097 9.44958C15.8826 9.44958 15.6606 9.51116 15.4717 9.62653C15.2829 9.7419 15.1357 9.90588 15.0487 10.0977C14.9618 10.2896 14.9391 10.5007 14.9834 10.7044C15.0277 10.908 15.1371 11.0951 15.2977 11.242C15.4583 11.3888 15.6629 11.4888 15.8857 11.5293C16.1084 11.5698 16.3393 11.549 16.5492 11.4696C16.759 11.3901 16.9384 11.2555 17.0646 11.0829C17.1907 10.9102 17.2581 10.7072 17.2581 10.4995C17.2581 10.2211 17.1371 9.95401 16.9217 9.75711C16.7064 9.5602 16.4143 9.44958 16.1097 9.44958ZM11.5162 0C10.0081 0 8.5148 0.271579 7.12152 0.79923C5.72824 1.32688 4.46227 2.10027 3.3959 3.07524C1.24227 5.04429 0.0323687 7.71489 0.0323687 10.4995C0.0223294 12.924 0.9405 15.2753 2.62771 17.1457L0.330948 19.2456C0.171601 19.3933 0.0636576 19.5808 0.0207379 19.7845C-0.0221819 19.9881 0.00184533 20.1989 0.0897877 20.3901C0.18517 20.579 0.339795 20.7378 0.534035 20.8462C0.728276 20.9546 0.953372 21.0078 1.18075 20.9991H11.5162C14.5619 20.9991 17.4828 19.8929 19.6365 17.9238C21.7901 15.9548 23 13.2842 23 10.4995C23 7.71489 21.7901 5.04429 19.6365 3.07524C17.4828 1.1062 14.5619 0 11.5162 0ZM11.5162 18.8992H3.94835L5.01635 17.9227C5.12485 17.8255 5.21118 17.7095 5.27031 17.5815C5.32945 17.4536 5.36023 17.3162 5.36086 17.1772C5.35654 16.9003 5.23272 16.6361 5.01635 16.4423C3.51264 15.069 2.57623 13.2615 2.36667 11.3277C2.15711 9.39399 2.68736 7.45363 3.86708 5.83724C5.04679 4.22085 6.80299 3.02844 8.83645 2.46316C10.8699 1.89788 13.0549 1.99471 15.019 2.73714C16.9831 3.47957 18.605 4.82168 19.6082 6.5348C20.6114 8.24792 20.9339 10.2261 20.5208 12.1322C20.1077 14.0384 18.9845 15.7546 17.3425 16.9885C15.7006 18.2224 13.6416 18.8976 11.5162 18.8992Z" fill="black"/>
</svg>
