<svg width="218" height="198" viewBox="0 0 218 198" fill="none" xmlns="http://www.w3.org/2000/svg">
<path d="M194.078 12.682C183.331 4.489 171.472 0.334 158.83 0.334C142.879 0.334 125.649 7.142 108.704 20.088C91.7591 7.142 74.5291 0.334 58.5781 0.334C45.9361 0.334 34.0771 4.489 23.3301 12.682C7.6061 24.671 -0.239902 39.8 0.00609791 57.648C0.852098 118.765 100.099 190.881 104.323 193.921L108.704 197.074L113.085 193.921C117.31 190.881 216.557 118.765 217.402 57.648C217.648 39.8 209.802 24.671 194.078 12.682ZM153.833 139.017C135.459 157.497 116.918 172.205 108.704 178.47C100.49 172.205 81.9491 157.498 63.5751 139.017C32.0961 107.356 15.3011 79.144 15.0051 57.432C14.8271 44.419 20.5261 33.683 32.4261 24.61C40.4991 18.454 49.2981 15.333 58.5781 15.333C76.1411 15.333 92.9161 26.269 103.895 35.443L108.704 39.461L113.513 35.443C124.492 26.269 141.267 15.333 158.83 15.333C168.11 15.333 176.909 18.454 184.982 24.61C196.882 33.683 202.581 44.419 202.403 57.432C202.107 79.145 185.311 107.356 153.833 139.017Z" fill="#FD2D01"/>
<path d="M194.078 12.682C183.331 4.489 171.472 0.334 158.83 0.334C142.879 0.334 125.649 7.142 108.704 20.088C91.7591 7.142 74.5291 0.334 58.5781 0.334C45.9361 0.334 34.0771 4.489 23.3301 12.682C7.6061 24.671 -0.239902 39.8 0.00609791 57.648C0.852098 118.765 100.099 190.881 104.323 193.921L108.704 197.074L113.085 193.921C117.31 190.881 216.557 118.765 217.402 57.648C217.648 39.8 209.802 24.671 194.078 12.682ZM153.833 139.017C135.459 157.497 116.918 172.205 108.704 178.47C100.49 172.205 81.9491 157.498 63.5751 139.017C32.0961 107.356 15.3011 79.144 15.0051 57.432C14.8271 44.419 20.5261 33.683 32.4261 24.61C40.4991 18.454 49.2981 15.333 58.5781 15.333C76.1411 15.333 92.9161 26.269 103.895 35.443L108.704 39.461L113.513 35.443C124.492 26.269 141.267 15.333 158.83 15.333C168.11 15.333 176.909 18.454 184.982 24.61C196.882 33.683 202.581 44.419 202.403 57.432C202.107 79.145 185.311 107.356 153.833 139.017Z" stroke="#FD2D01"/>
</svg>
