<svg width="655" height="477" viewBox="0 0 655 477" fill="none" xmlns="http://www.w3.org/2000/svg">
<g clip-path="url(#clip0_1_39)">
<path d="M638.126 425.786C635.928 409.214 625.502 392.951 609.614 387.678C615.998 404.703 616.146 423.433 610.03 440.556C607.647 447.151 604.309 454.238 606.652 460.847C608.11 464.96 611.621 468.087 615.533 470.029C619.445 471.971 623.777 472.877 628.055 473.765L628.901 474.452C635.559 459.114 640.323 442.358 638.126 425.786Z" fill="#F0F0F0"/>
<path d="M609.46 387.993C618.769 398.243 624.607 411.161 626.144 424.912C626.527 427.867 626.442 430.863 625.891 433.791C625.262 436.626 623.884 439.241 621.901 441.364C620.091 443.381 618.006 445.235 616.719 447.656C616.079 448.905 615.71 450.275 615.638 451.677C615.565 453.078 615.789 454.479 616.297 455.787C617.476 459.08 619.77 461.754 622.105 464.291C624.697 467.108 627.434 469.993 628.556 473.745C628.692 474.2 629.391 473.963 629.255 473.509C627.303 466.98 620.911 463.313 617.83 457.443C616.393 454.704 615.773 451.516 617.077 448.602C618.218 446.055 620.366 444.141 622.216 442.115C624.181 440.071 625.616 437.579 626.394 434.855C627.093 431.964 627.293 428.976 626.988 426.018C626.406 419.349 624.778 412.812 622.162 406.647C619.216 399.595 615.084 393.098 609.943 387.437C609.625 387.086 609.143 387.645 609.46 387.993Z" fill="white"/>
<path d="M625.91 420.455C628.186 419.884 630.184 418.525 631.548 416.619C632.913 414.712 633.554 412.384 633.357 410.05C633.316 409.577 632.579 409.619 632.621 410.092C632.807 412.266 632.21 414.435 630.936 416.207C629.662 417.979 627.795 419.239 625.673 419.757C625.212 419.871 625.451 420.568 625.91 420.455Z" fill="white"/>
<path d="M622.953 440.462C618.816 438.04 615.745 434.149 614.353 429.566C614.215 429.112 613.516 429.349 613.654 429.803C615.111 434.569 618.315 438.611 622.627 441.123C623.038 441.362 623.362 440.7 622.953 440.462Z" fill="white"/>
<path d="M618.537 400.298C617.703 400.702 616.781 400.893 615.854 400.853C614.928 400.814 614.026 400.545 613.229 400.071C612.821 399.827 612.497 400.489 612.902 400.732C613.785 401.251 614.782 401.547 615.805 401.593C616.829 401.639 617.848 401.434 618.774 400.996C618.865 400.962 618.939 400.895 618.982 400.808C619.025 400.721 619.033 400.621 619.005 400.529C618.973 400.436 618.906 400.36 618.819 400.317C618.731 400.274 618.63 400.267 618.537 400.298L618.537 400.298Z" fill="white"/>
<path d="M561.552 417.689C561.802 417.848 562.053 418.008 562.303 418.174C565.658 420.339 568.83 422.772 571.79 425.449C572.022 425.652 572.254 425.862 572.48 426.072C579.542 432.598 585.329 440.377 589.546 449.013C591.221 452.451 592.632 456.011 593.766 459.663C595.332 464.706 596.628 470.298 599.681 474.409C599.995 474.842 600.335 475.254 600.7 475.645L627.996 475.429C628.057 475.398 628.12 475.372 628.182 475.341L629.272 475.382C629.227 475.189 629.175 474.991 629.13 474.798C629.104 474.687 629.072 474.575 629.047 474.463C629.027 474.389 629.008 474.314 628.995 474.246C628.989 474.221 628.982 474.196 628.976 474.178C628.963 474.109 628.944 474.047 628.931 473.985C628.648 472.875 628.357 471.764 628.057 470.653C628.057 470.647 628.057 470.647 628.051 470.641C625.851 462.155 622.65 453.961 618.515 446.228C618.389 445.999 618.263 445.764 618.124 445.535C616.211 442.113 614.021 438.852 611.576 435.787C610.231 434.112 608.803 432.507 607.296 430.976C603.395 427.03 598.896 423.72 593.965 421.17C584.134 416.086 572.785 414.198 562.347 417.434C562.08 417.517 561.819 417.599 561.552 417.689Z" fill="#F0F0F0"/>
<path d="M561.616 418.034C575.23 420.622 587.681 427.427 597.2 437.482C599.288 439.611 601.027 442.054 602.352 444.723C603.56 447.365 604.036 450.281 603.733 453.169C603.504 455.867 602.958 458.601 603.39 461.308C603.632 462.69 604.164 464.005 604.95 465.168C605.737 466.331 606.761 467.314 607.955 468.054C610.883 469.974 614.327 470.73 617.721 471.352C621.489 472.043 625.414 472.701 628.573 475.023C628.955 475.304 629.37 474.695 628.988 474.414C623.492 470.374 616.178 471.289 610.178 468.454C607.379 467.131 604.962 464.958 604.246 461.848C603.621 459.128 604.182 456.309 604.437 453.579C604.774 450.766 604.417 447.913 603.395 445.271C602.21 442.543 600.568 440.036 598.541 437.858C594.054 432.883 588.812 428.642 583.007 425.292C576.402 421.432 569.185 418.729 561.667 417.299C561.202 417.211 561.154 417.946 561.616 418.034Z" fill="white"/>
<path d="M594.326 434.064C595.798 432.241 596.574 429.954 596.514 427.612C596.454 425.27 595.562 423.025 593.998 421.279C593.68 420.927 593.117 421.404 593.435 421.756C594.895 423.379 595.725 425.47 595.777 427.651C595.828 429.832 595.097 431.96 593.716 433.65C593.416 434.017 594.028 434.43 594.326 434.064Z" fill="white"/>
<path d="M604.029 451.816C599.265 452.369 594.467 451.109 590.592 448.286C590.208 448.007 589.793 448.616 590.176 448.896C594.214 451.825 599.21 453.126 604.167 452.54C604.639 452.484 604.499 451.76 604.029 451.816Z" fill="white"/>
<path d="M576.284 422.402C575.861 423.226 575.24 423.933 574.477 424.458C573.713 424.984 572.831 425.311 571.909 425.412C571.436 425.462 571.577 426.186 572.046 426.136C573.064 426.02 574.038 425.657 574.884 425.078C575.729 424.5 576.419 423.723 576.894 422.817C576.946 422.735 576.965 422.637 576.947 422.542C576.929 422.447 576.875 422.362 576.797 422.305C576.716 422.25 576.616 422.23 576.52 422.248C576.424 422.266 576.34 422.322 576.284 422.402L576.284 422.402Z" fill="white"/>
<path d="M458.247 259.066C458.721 259.689 459.327 260.201 460.021 260.565C460.715 260.929 461.481 261.137 462.264 261.174C463.047 261.211 463.829 261.076 464.554 260.778C465.28 260.481 465.931 260.028 466.462 259.452L483.941 267.042L482.238 257.3L465.901 251.586C464.873 250.759 463.577 250.338 462.258 250.402C460.94 250.465 459.69 251.009 458.747 251.931C457.803 252.853 457.231 254.089 457.139 255.404C457.047 256.719 457.441 258.022 458.247 259.066V259.066Z" fill="#A0616A"/>
<path d="M474.15 253.562L507.54 257.883L541.974 237.172C543.815 236.065 545.871 235.359 548.005 235.102C550.139 234.845 552.304 235.042 554.357 235.68C556.409 236.319 558.303 237.384 559.913 238.806C561.524 240.227 562.815 241.974 563.7 243.93C565.299 247.469 565.481 251.485 564.21 255.155C562.94 258.825 560.312 261.87 556.865 263.669L510.595 280.132L510.508 280.163L469.911 262.107L474.15 253.562Z" fill="#3F3D56"/>
<path d="M559.482 469.167H552.384L549.007 441.831L559.484 441.831L559.482 469.167Z" fill="#A0616A"/>
<path d="M561.292 476.036L538.405 476.036V475.747C538.406 473.388 539.344 471.125 541.015 469.457C542.685 467.789 544.951 466.852 547.314 466.852H547.314L551.495 463.686L559.295 466.853L561.293 466.853L561.292 476.036Z" fill="#2F2E41"/>
<path d="M531.976 464.7L525.052 466.261L515.728 440.34L525.946 438.036L531.976 464.7Z" fill="#A0616A"/>
<path d="M535.257 471.004L512.932 476.036L512.869 475.755C512.348 473.454 512.765 471.04 514.026 469.046C515.288 467.052 517.291 465.639 519.596 465.119L519.596 465.119L522.976 461.111L531.283 462.485L533.232 462.045L535.257 471.004Z" fill="#2F2E41"/>
<path d="M568.472 302.051C571.8 312.072 571.448 322.95 567.672 334.625L566.058 400.358C566.058 400.358 568.463 443.464 560.703 458.633H549.448L543.876 396.421L543.176 354.664L519.047 389.893L534.415 457.616L520.563 458.852L495.625 385.357L526.394 314.054L568.472 302.051Z" fill="#2F2E41"/>
<path d="M522.911 311.739L525.687 304.811L523.851 298.855L523.433 241.139L523.433 241.095L530.093 230.491L530.147 223.784L548.745 223.331L550.762 228.445L554.753 230.827C559.104 233.433 562.692 237.137 565.154 241.566C567.617 245.996 568.867 250.994 568.78 256.06L568.059 295.001L569.915 298.707C570.419 299.714 570.7 300.817 570.736 301.942C570.773 303.066 570.566 304.186 570.129 305.223C569.691 306.26 569.034 307.19 568.203 307.95C567.371 308.71 566.385 309.281 565.312 309.624L524.387 316.16L522.911 311.739Z" fill="#3F3D56"/>
<path d="M537.743 216.972C547.076 216.972 554.641 209.418 554.641 200.1C554.641 190.782 547.076 183.229 537.743 183.229C528.411 183.229 520.846 190.782 520.846 200.1C520.846 209.418 528.411 216.972 537.743 216.972Z" fill="#A0616A"/>
<path d="M555.339 203.778C555.843 201.658 555.612 198.675 555.327 196.541C554.962 193.726 554.009 191.019 552.53 188.596C551.05 186.172 549.077 184.086 546.739 182.473C545.842 181.793 544.776 181.37 543.657 181.25C543.097 181.203 542.537 181.334 542.057 181.624C541.576 181.914 541.2 182.349 540.982 182.866C540.7 182.163 540.277 181.526 539.739 180.993C539.201 180.461 538.56 180.044 537.854 179.768C536.436 179.226 534.911 179.021 533.401 179.169C530.472 179.41 527.664 180.438 525.273 182.144C522.883 183.851 520.999 186.171 519.823 188.86C519.372 189.93 518.111 185.976 517.539 186.987C517.014 188.039 516.097 188.843 514.985 189.228C513.865 189.54 513.41 194.15 512.969 193.075C512.626 193.869 512.491 194.737 512.575 195.598C512.66 196.458 512.961 197.284 513.45 197.997C513.94 198.71 514.603 199.288 515.376 199.676C516.15 200.065 517.01 200.252 517.875 200.219C519.006 200.073 520.127 199.859 521.233 199.578C523.262 199.322 525.315 199.818 527.004 200.97C528.693 202.123 529.9 203.853 530.399 205.834C530.707 204.682 531.2 203.587 531.858 202.592C532.192 202.097 532.64 201.689 533.163 201.402C533.687 201.115 534.272 200.956 534.87 200.94C535.441 201.006 535.993 201.187 536.491 201.473C536.989 201.759 537.424 202.144 537.768 202.604C538.512 203.476 539.071 204.493 539.82 205.361C542.019 207.906 544.993 213.841 548.127 213.409C550.6 213.067 554.651 206.673 555.339 203.778Z" fill="#2F2E41"/>
<path d="M474.75 303.845C475.469 304.157 476.248 304.307 477.032 304.286C477.816 304.265 478.585 304.073 479.287 303.722C479.988 303.372 480.604 302.873 481.091 302.259C481.578 301.645 481.924 300.933 482.105 300.171L501.069 298.258L494.813 290.591L477.764 293.583C476.462 293.364 475.125 293.629 474.006 294.328C472.887 295.028 472.063 296.113 471.692 297.377C471.321 298.642 471.427 299.999 471.99 301.191C472.554 302.383 473.536 303.327 474.75 303.845Z" fill="#A0616A"/>
<path d="M485.926 291.279L517.168 278.746L537.062 243.869C538.126 242.004 539.573 240.385 541.309 239.118C543.045 237.852 545.03 236.967 547.133 236.522C549.236 236.077 551.409 236.081 553.51 236.535C555.612 236.989 557.593 237.882 559.323 239.156C562.451 241.463 564.577 244.877 565.265 248.699C565.954 252.52 565.154 256.46 563.028 259.711L530.73 296.662L530.669 296.732L486.414 300.803L485.926 291.279Z" fill="#3F3D56"/>
<path d="M471.761 320.297H343.59C342.697 320.296 341.84 319.941 341.209 319.31C340.577 318.68 340.222 317.825 340.221 316.933V265.007C340.222 264.116 340.577 263.261 341.209 262.63C341.84 261.999 342.697 261.645 343.59 261.644H471.761C472.654 261.645 473.511 261.999 474.142 262.63C474.774 263.261 475.129 264.116 475.13 265.007V316.933C475.129 317.825 474.774 318.68 474.142 319.31C473.511 319.941 472.654 320.296 471.761 320.297Z" fill="#FFD7D7"/>
<path d="M459.557 345.206H355.794C355.263 345.207 354.737 345.103 354.245 344.9C353.754 344.698 353.308 344.4 352.932 344.026C352.556 343.651 352.258 343.206 352.054 342.715C351.851 342.225 351.746 341.7 351.746 341.169C351.746 340.639 351.851 340.113 352.054 339.623C352.258 339.133 352.556 338.688 352.932 338.313C353.308 337.938 353.754 337.641 354.245 337.439C354.737 337.236 355.263 337.132 355.794 337.133H459.557C464.77 337.06 464.823 345.279 459.557 345.206Z" fill="#E4E4E4"/>
<path d="M459.557 363.706H355.794C354.722 363.706 353.694 363.281 352.936 362.524C352.177 361.767 351.751 360.74 351.751 359.67C351.751 358.599 352.177 357.573 352.936 356.816C353.694 356.059 354.722 355.633 355.794 355.633H459.557C464.77 355.561 464.823 363.779 459.557 363.706Z" fill="#E4E4E4"/>
<path d="M23.5131 182.572C0.950137 152.973 -8.13921 110.975 8.65547 77.7726C25.3214 114.642 54.5118 144.438 91.0621 161.888C105.182 168.567 121.584 174.527 128.268 188.628C132.427 197.402 131.798 207.836 128.673 217.028C125.548 226.22 120.134 234.434 114.776 242.534L114.52 244.943C79.9173 231.16 46.0761 212.172 23.5131 182.572Z" fill="#F0F0F0"/>
<path d="M9.39439 78.0273C10.7773 108.461 21.9069 138.65 41.0531 162.429C45.1925 167.57 49.8397 172.426 55.3989 176.048C60.8449 179.538 67.1274 181.508 73.5938 181.754C79.6185 182.104 85.8217 181.765 91.6563 183.571C97.8062 185.475 102.389 189.986 105.096 195.744C108.408 202.789 108.987 210.602 109.287 218.262C109.62 226.767 109.831 235.607 113.954 243.287C114.454 244.218 112.979 244.937 112.48 244.008C105.306 230.646 109.635 214.849 105.277 200.759C103.243 194.184 99.2133 188.182 92.5778 185.625C86.7753 183.39 80.3783 183.733 74.2751 183.432C67.8667 183.115 61.8653 181.762 56.2762 178.515C50.5589 175.194 45.7118 170.51 41.4589 165.497C31.9 154.058 24.2018 141.19 18.6464 127.363C12.2184 111.618 8.53539 94.8917 7.75661 77.9068C7.70884 76.8555 9.34695 76.9829 9.3944 78.0274L9.39439 78.0273Z" fill="white"/>
<path d="M34.4214 155.028C29.9327 157.691 24.6422 158.674 19.4947 157.801C14.3471 156.929 9.67772 154.258 6.32035 150.266C5.64379 149.456 6.87289 148.368 7.55034 149.179C10.6698 152.903 15.0197 155.39 19.8147 156.193C24.6098 156.995 29.5342 156.06 33.6992 153.555C34.605 153.012 35.3219 154.488 34.4214 155.028Z" fill="white"/>
<path d="M70.5157 181.978C73.2413 171.675 71.9772 160.724 66.9757 151.31C66.4794 150.378 67.9547 149.658 68.4504 150.589C73.6368 160.396 74.9289 171.794 72.069 182.509C71.7957 183.53 70.2439 182.994 70.5157 181.978V181.978Z" fill="white"/>
<path d="M14.3951 111.665C16.3469 110.996 18.1017 109.854 19.5019 108.34C20.9021 106.827 21.904 104.99 22.4174 102.994C22.6776 101.97 24.2293 102.508 23.9708 103.526C23.3932 105.728 22.2843 107.755 20.741 109.431C19.1977 111.106 17.2668 112.379 15.1172 113.138C14.9206 113.226 14.6976 113.236 14.4936 113.167C14.2896 113.097 14.1198 112.952 14.0188 112.762C13.9242 112.567 13.9106 112.342 13.9811 112.136C14.0515 111.931 14.2003 111.762 14.3951 111.665Z" fill="white"/>
<path d="M131.661 49.8786C131.517 50.5227 131.372 51.1668 131.237 51.8212C129.343 60.4906 128.157 69.2992 127.691 78.1603C127.644 78.8448 127.607 79.5393 127.58 80.2237C126.686 101.584 129.771 122.925 136.679 143.16C139.436 151.21 142.802 159.039 146.748 166.579C152.198 176.991 158.937 187.848 160.575 199.118C160.759 200.292 160.871 201.477 160.908 202.664L117.484 245.068C117.337 245.115 117.199 245.172 117.052 245.219L115.395 246.992C115.165 246.617 114.933 246.223 114.703 245.849C114.568 245.632 114.443 245.406 114.308 245.189C114.222 245.041 114.135 244.893 114.048 244.765C114.019 244.716 113.991 244.667 113.971 244.628C113.885 244.499 113.818 244.371 113.741 244.253C112.442 242.057 111.157 239.848 109.885 237.625C109.875 237.615 109.875 237.615 109.875 237.596C100.225 220.64 91.9082 202.73 86.5783 184.13C86.4182 183.57 86.2478 183.001 86.1074 182.422C83.7515 174.025 82.087 165.449 81.1305 156.78C80.622 152.032 80.3546 147.261 80.3292 142.486C80.2876 130.148 82.1899 117.88 85.9666 106.131C93.4987 82.7124 108.448 61.9594 130.006 50.7212C130.557 50.434 131.1 50.1558 131.661 49.8786Z" fill="#F0F0F0"/>
<path d="M132.102 50.5242C114.855 75.655 105.537 106.45 106.485 136.946C106.691 143.539 107.473 150.209 109.727 156.444C111.971 162.504 115.8 167.853 120.815 171.937C125.414 175.838 130.571 179.296 134.141 184.245C137.903 189.462 138.842 195.819 137.531 202.044C135.927 209.66 131.678 216.246 127.299 222.543C122.436 229.534 117.274 236.718 115.935 245.33C115.773 246.373 114.161 246.061 114.323 245.019C116.653 230.037 129.635 220.027 134.651 206.157C136.992 199.685 137.394 192.47 133.638 186.44C130.353 181.167 125.038 177.596 120.347 173.686C115.421 169.581 111.445 164.893 108.94 158.94C106.378 152.852 105.333 146.198 104.96 139.639C104.225 124.759 105.838 109.857 109.74 95.478C114.102 79.0425 121.247 63.4731 130.867 49.4435C131.463 48.5754 132.694 49.6618 132.102 50.5242L132.102 50.5242Z" fill="white"/>
<path d="M105.653 127.049C100.464 126.477 95.6469 124.082 92.0628 120.291C88.4788 116.5 86.361 111.561 86.0878 106.355C86.0361 105.301 87.6734 105.172 87.7251 106.227C87.9706 111.075 89.9438 115.676 93.2885 119.199C96.6331 122.722 101.129 124.936 105.965 125.44C107.015 125.55 106.698 127.16 105.653 127.049H105.653Z" fill="white"/>
<path d="M118.222 170.265C126.611 163.677 132.205 154.174 133.888 143.651C134.054 142.608 135.666 142.92 135.5 143.962C133.728 154.909 127.887 164.787 119.142 171.623C118.308 172.274 117.392 170.913 118.222 170.265Z" fill="white"/>
<path d="M115.811 80.3883C117.773 81.0274 119.863 81.1701 121.894 80.8034C123.924 80.4367 125.832 79.5722 127.445 78.2875C128.271 77.6262 129.185 78.9885 128.365 79.6455C126.576 81.0566 124.468 82.0088 122.226 82.4189C119.983 82.829 117.674 82.6845 115.5 81.998C115.29 81.9504 115.106 81.8247 114.985 81.6463C114.864 81.468 114.816 81.2504 114.85 81.0378C114.892 80.8248 115.017 80.6372 115.197 80.5156C115.377 80.394 115.598 80.3482 115.811 80.3883Z" fill="white"/>
<path d="M143.243 132.539C153.29 132.539 161.434 124.407 161.434 114.375C161.434 104.344 153.29 96.2114 143.243 96.2114C133.195 96.2114 125.051 104.344 125.051 114.375C125.051 124.407 133.195 132.539 143.243 132.539Z" fill="#2F2E41"/>
<path d="M242.783 289.166H114.612C113.719 289.165 112.862 288.81 112.231 288.18C111.599 287.549 111.244 286.694 111.243 285.802V233.877C111.244 232.985 111.599 232.13 112.231 231.499C112.862 230.869 113.719 230.514 114.612 230.513H242.783C243.676 230.514 244.533 230.869 245.164 231.499C245.796 232.13 246.151 232.985 246.152 233.877V285.802C246.151 286.694 245.796 287.549 245.164 288.18C244.533 288.81 243.676 289.165 242.783 289.166Z" fill="#D1D3D4"/>
<path d="M230.579 314.075H126.816C125.747 314.07 124.723 313.643 123.969 312.887C123.215 312.13 122.792 311.106 122.792 310.039C122.792 308.971 123.215 307.947 123.969 307.191C124.723 306.434 125.747 306.007 126.816 306.002H230.579C235.792 305.93 235.844 314.148 230.579 314.075Z" fill="#E4E4E4"/>
<path d="M230.579 332.575H126.816C126.285 332.576 125.758 332.472 125.267 332.27C124.776 332.067 124.33 331.77 123.954 331.395C123.578 331.02 123.28 330.575 123.076 330.085C122.872 329.595 122.768 329.07 122.768 328.539C122.768 328.008 122.872 327.483 123.076 326.993C123.28 326.503 123.578 326.058 123.954 325.683C124.33 325.308 124.776 325.011 125.267 324.808C125.758 324.606 126.285 324.502 126.816 324.503H230.579C235.792 324.43 235.844 332.649 230.579 332.575Z" fill="#E4E4E4"/>
<path d="M459.557 382.206H355.794C355.263 382.207 354.737 382.103 354.245 381.901C353.754 381.698 353.308 381.401 352.932 381.026C352.556 380.651 352.258 380.206 352.054 379.716C351.851 379.226 351.746 378.701 351.746 378.17C351.746 377.639 351.851 377.114 352.054 376.624C352.258 376.134 352.556 375.689 352.932 375.314C353.308 374.939 353.754 374.642 354.245 374.439C354.737 374.237 355.263 374.133 355.794 374.134H459.557C464.77 374.061 464.823 382.28 459.557 382.206Z" fill="#E4E4E4"/>
<path d="M230.579 351.076H126.816C125.744 351.076 124.716 350.65 123.958 349.893C123.199 349.137 122.773 348.11 122.773 347.039C122.773 345.969 123.199 344.942 123.958 344.185C124.716 343.428 125.744 343.003 126.816 343.003H230.579C235.792 342.93 235.844 351.149 230.579 351.076Z" fill="#E4E4E4"/>
<path d="M239.099 150.246C238.606 150.992 237.955 151.62 237.193 152.088C236.43 152.556 235.574 152.851 234.685 152.952C233.796 153.054 232.895 152.96 232.047 152.676C231.198 152.393 230.422 151.927 229.773 151.311L184.357 170.668L185.552 159.445L229.811 142.311C230.919 141.291 232.363 140.713 233.869 140.685C235.376 140.657 236.84 141.182 237.985 142.16C239.13 143.138 239.875 144.501 240.081 145.991C240.286 147.482 239.937 148.995 239.099 150.246Z" fill="#FFB6B6"/>
<path d="M146.657 149.203C146.657 149.203 141.042 154.648 146.614 161.656C152.187 168.663 179.74 173.22 184.158 174.087C188.577 174.954 213.157 158.261 213.157 158.261L215.538 146.166L188.101 155.565L146.657 149.203Z" fill="#FFD7D7"/>
<path d="M131.577 190.519L132.019 198.907C132.019 198.907 130.714 206.337 131.788 207.941C132.853 209.536 161.921 209.738 161.921 209.738C161.921 209.738 163.841 199.4 165.496 190.351L131.577 190.519Z" fill="#FFB6B6"/>
<path d="M215.151 301.426L221.228 300.201L219.489 275.693L210.52 277.502L215.151 301.426Z" fill="#FFB6B6"/>
<path d="M223.856 269.533L229.505 266.996L222.177 243.547L213.838 247.292L223.856 269.533Z" fill="#FFB6B6"/>
<path d="M228.777 256.32L218.14 262.334L191.905 220.243C173.489 232.632 155.48 238.564 137.325 241.73C131.187 242.821 124.929 242.268 123.751 236.031C123.696 235.739 123.652 235.446 123.619 235.151C122.894 228.338 131.383 219.604 132.462 211.268L155.693 209.876L158.557 213.543L185.424 197.052C186.728 196.268 188.174 195.751 189.679 195.528C191.185 195.306 192.72 195.383 194.195 195.755C195.67 196.128 197.057 196.788 198.276 197.698C199.495 198.608 200.521 199.75 201.295 201.058C201.473 201.35 201.638 201.649 201.79 201.956L228.777 256.32Z" fill="#2F2E41"/>
<path d="M222.266 284.635L210.094 285.765L188.025 240.699C166.14 244.457 145.494 245.661 127.636 241.115C124.704 240.342 122.195 238.448 120.65 235.843C119.105 233.237 118.649 230.13 119.381 227.192C119.45 226.903 119.53 226.618 119.622 226.335C121.759 219.825 127.354 215.218 131.761 208.057L163.958 208.545L160.362 220.934L191.638 216.893C193.149 216.712 194.681 216.832 196.146 217.246C197.61 217.659 198.978 218.358 200.171 219.302C201.364 220.246 202.357 221.416 203.095 222.745C203.833 224.074 204.3 225.536 204.469 227.046C204.511 227.385 204.538 227.725 204.551 228.067L222.266 284.635Z" fill="#2F2E41"/>
<path d="M144.149 134.072C151.369 134.072 157.222 128.227 157.222 121.018C157.222 113.809 151.369 107.965 144.149 107.965C136.928 107.965 131.075 113.809 131.075 121.018C131.075 128.227 136.928 134.072 144.149 134.072Z" fill="#FFB6B6"/>
<path d="M136.484 138.784L148.472 140.192C148.977 140.251 149.452 140.467 149.829 140.808C150.206 141.149 150.467 141.6 150.575 142.096L152.482 150.806L164.366 164.779C164.366 164.779 168.633 172.768 167.033 181.822C165.432 190.876 164.729 197.603 164.729 197.603C164.729 197.603 132.851 209.537 131.785 207.939C130.718 206.341 130.371 199.084 130.371 199.084L126.104 151.684C126.104 151.684 130.905 143.695 133.572 143.695C135.293 143.637 135.073 139.769 136.484 138.784Z" fill="#FFD7D7"/>
<path d="M165.053 200.517C166.734 200.517 168.097 198.885 168.097 196.871C168.097 194.857 166.734 193.224 165.053 193.224C163.372 193.224 162.01 194.857 162.01 196.871C162.01 198.885 163.372 200.517 165.053 200.517Z" fill="#6C63FF"/>
<path d="M212.135 295.116L221.4 290.48L223.146 294.547L234.862 296.912C235.441 297.029 235.967 297.327 236.364 297.763C236.76 298.2 237.007 298.752 237.068 299.338C237.128 299.924 236.999 300.514 236.7 301.023C236.401 301.531 235.947 301.93 235.404 302.162L224.085 307.007L220.406 303.819L221.372 308.168L217.104 309.995L212.135 295.116Z" fill="#2F2E41"/>
<path d="M221.204 267.582L230.386 262.784L232.204 266.82L243.959 268.979C244.54 269.085 245.071 269.374 245.475 269.804C245.88 270.233 246.136 270.78 246.207 271.365C246.278 271.95 246.16 272.543 245.869 273.056C245.579 273.569 245.132 273.977 244.594 274.218L233.361 279.261L229.627 276.138L230.669 280.47L226.434 282.371L221.204 267.582Z" fill="#2F2E41"/>
<path d="M136.679 116.924C133.225 116.929 129.854 115.867 127.029 113.884L126.935 113.818V113.703C126.938 110.367 128.267 107.169 130.63 104.81C132.992 102.452 136.195 101.125 139.536 101.121H144.842C148.183 101.125 151.386 102.452 153.748 104.81C156.111 107.169 157.44 110.367 157.443 113.703C157.44 114.467 157.138 115.198 156.602 115.743C156.066 116.287 155.338 116.602 154.574 116.618L136.977 116.921C136.878 116.923 136.778 116.924 136.679 116.924Z" fill="#2F2E41"/>
<path d="M189.302 218.461C188.411 218.543 187.512 218.43 186.67 218.128C185.828 217.826 185.062 217.343 184.427 216.714C183.791 216.085 183.302 215.324 182.993 214.485C182.684 213.647 182.563 212.751 182.638 211.86L139.113 188.572L148.633 182.486L189.697 206.263C191.187 206.489 192.542 207.252 193.506 208.408C194.469 209.565 194.975 211.034 194.926 212.537C194.877 214.041 194.278 215.474 193.241 216.566C192.205 217.658 190.803 218.332 189.302 218.461H189.302Z" fill="#FFB6B6"/>
<path d="M132.321 145.775C132.321 145.775 124.554 144.803 122.561 153.527C120.567 162.25 134.232 186.569 136.317 190.555C138.402 194.541 166.818 203.257 166.818 203.257L177.76 197.551L153.26 182.047L132.321 145.775Z" fill="#FFD7D7"/>
<path d="M146.172 103.066C147.395 101.569 146.439 99.3506 145.436 97.6979C143.138 93.9112 140.725 90.1968 138.198 86.5546C135.041 82.0035 131.216 77.2455 125.779 76.1544C120.822 75.1594 115.827 77.5116 111.562 80.2242C107.369 82.8911 103.239 86.2504 101.643 90.9518C100.115 95.4509 101.188 100.447 103.088 104.802C104.716 108.532 106.906 112.993 104.585 116.337C103.473 117.711 101.98 118.726 100.292 119.254C96.0052 120.917 91.3988 121.595 86.8139 121.239C93.1091 121.172 98.6194 127.626 104.722 126.082C108.183 125.206 110.488 121.985 112.146 118.828C113.359 116.709 114.18 114.388 114.569 111.977C114.972 108.708 114.1 105.267 115.201 102.162C116.347 98.9299 119.393 96.7674 122.468 95.2408C124.509 94.2272 126.735 93.3808 129.008 93.5526C135.452 94.0396 138.79 101.959 144.905 104.048" fill="#2F2E41"/>
<path d="M365.199 147.264H237.028C236.135 147.263 235.279 146.909 234.647 146.278C234.016 145.647 233.66 144.792 233.659 143.901V91.975C233.66 91.0832 234.016 90.2282 234.647 89.5977C235.279 88.9671 236.135 88.6123 237.028 88.6113H365.199C366.093 88.6123 366.949 88.9671 367.58 89.5976C368.212 90.2282 368.567 91.0832 368.568 91.975V143.901C368.567 144.793 368.212 145.647 367.58 146.278C366.949 146.909 366.093 147.263 365.199 147.264Z" fill="#FFD7D7"/>
<path d="M352.995 172.173H249.232C248.16 172.173 247.132 171.748 246.374 170.991C245.616 170.234 245.19 169.208 245.19 168.137C245.19 167.067 245.616 166.04 246.374 165.283C247.132 164.526 248.16 164.101 249.232 164.101H352.995C358.209 164.028 358.261 172.247 352.995 172.173Z" fill="#E4E4E4"/>
<path d="M352.995 190.674H249.232C248.701 190.675 248.175 190.571 247.684 190.368C247.193 190.166 246.746 189.868 246.37 189.494C245.994 189.119 245.696 188.673 245.492 188.183C245.289 187.693 245.184 187.168 245.184 186.637C245.184 186.107 245.289 185.581 245.492 185.091C245.696 184.601 245.994 184.156 246.37 183.781C246.746 183.406 247.193 183.109 247.684 182.907C248.175 182.704 248.701 182.6 249.232 182.601H352.995C358.209 182.528 358.261 190.747 352.995 190.674Z" fill="#E4E4E4"/>
<path d="M352.995 209.174H249.232C248.16 209.174 247.132 208.749 246.374 207.992C245.616 207.235 245.19 206.208 245.19 205.138C245.19 204.067 245.616 203.041 246.374 202.284C247.132 201.527 248.16 201.101 249.232 201.101H352.995C358.209 201.029 358.261 209.247 352.995 209.174Z" fill="#E4E4E4"/>
</g>
<defs>
<clipPath id="clip0_1_39">
<rect width="655" height="477" fill="white"/>
</clipPath>
</defs>
</svg>
