<svg width="42" height="42" viewBox="0 0 42 42" fill="none" xmlns="http://www.w3.org/2000/svg">
<path d="M21 41.9C26.6 41.9 31.85 39.75 35.8 35.8C39.75 31.85 41.9 26.6 41.9 21C41.9 15.4 39.75 10.15 35.8 6.2C31.85 2.25 26.6 0.100006 21 0.100006C15.4 0.100006 10.15 2.25 6.19997 6.2C2.24997 10.15 0.0999756 15.4 0.0999756 21C0.0999756 26.6 2.24997 31.85 6.19997 35.8C10.15 39.75 15.4 41.9 21 41.9ZM22.2 38.35C21.8 38.4 21.4 38.4 21 38.4C20.45 38.4 19.9 38.35 19.35 38.3C17.55 35.5 16.2 32.5 15.4 29.35H24.25C24.55 30.1 25.1 30.8 25.75 31.25C24.9 33.75 23.7 36.1 22.2 38.35ZM26.95 37.35C27.9 35.6 28.65 33.85 29.25 32C30.7 31.7 31.85 30.7 32.4 29.35H36.25C34.25 33 30.9 35.85 26.95 37.35ZM38.35 21C38.35 22.65 38.1 24.25 37.7 25.8H32.3C32 25.15 31.5 24.55 30.9 24.1C31 23 31.05 21.9 31.05 20.8C31.05 19.25 30.95 17.7 30.75 16.2H37.65C38.15 17.7 38.35 19.35 38.35 21ZM36.25 12.65H30.15C29.5 9.90001 28.55 7.30001 27.25 4.80001C31.05 6.25001 34.25 9.10001 36.25 12.65ZM27.55 20.8C27.55 21.65 27.5 22.5 27.45 23.35C26.05 23.65 24.9 24.55 24.35 25.8H14.7C14.5 24.3 14.35 22.75 14.35 21.25C14.35 20.3 14.4 19.35 14.5 18.4C15.8 18.15 16.85 17.3 17.5 16.2H27.25C27.45 17.7 27.55 19.25 27.55 20.8ZM19.7 3.7C20.15 3.65 20.6 3.65001 21 3.65001C21.5 3.65001 22 3.65 22.5 3.7C24.3 6.5 25.65 9.50001 26.45 12.65H17.75C17.45 11.8 16.9 11.05 16.2 10.5C17.1 8.10001 18.25 5.85 19.7 3.7ZM14.95 4.7C14.1 6.3 13.35 8 12.75 9.7C11.2 10 9.94997 11.15 9.44997 12.6H5.79998C7.74998 9.05001 11 6.2 14.95 4.7ZM3.64998 21C3.64998 19.35 3.89998 17.7 4.34998 16.2H9.79998C10.1 16.75 10.55 17.25 11.05 17.65C10.95 18.85 10.85 20.05 10.85 21.25C10.85 22.8 10.95 24.3 11.15 25.8H4.34998C3.84998 24.25 3.64998 22.65 3.64998 21ZM11.75 29.3C12.4 32 13.35 34.65 14.65 37.15C10.85 35.65 7.69998 32.85 5.74998 29.3H11.75Z" fill="white"/>
</svg>
